<svg width="23" height="27" viewBox="0 0 23 27" fill="none" xmlns="http://www.w3.org/2000/svg">
<path d="M8.70178 2.43C8.44762 2.43 8.20386 2.5189 8.02414 2.67713C7.84442 2.83537 7.74345 3.04998 7.74345 3.27375C7.74345 3.49753 7.84442 3.71214 8.02414 3.87038C8.20386 4.02861 8.44762 4.1175 8.70178 4.1175H14.4518C14.7059 4.1175 14.9497 4.02861 15.1294 3.87038C15.3091 3.71214 15.4101 3.49753 15.4101 3.27375C15.4101 3.04998 15.3091 2.83537 15.1294 2.67713C14.9497 2.5189 14.7059 2.43 14.4518 2.43H8.70178ZM17.3268 12.555C17.3268 13.8977 16.721 15.1853 15.6426 16.1347C14.5643 17.0841 13.1018 17.6175 11.5768 17.6175C10.0518 17.6175 8.58925 17.0841 7.51092 16.1347C6.43258 15.1853 5.82678 13.8977 5.82678 12.555C5.82678 11.2123 6.43258 9.92468 7.51092 8.97528C8.58925 8.02587 10.0518 7.4925 11.5768 7.4925C13.1018 7.4925 14.5643 8.02587 15.6426 8.97528C16.721 9.92468 17.3268 11.2123 17.3268 12.555Z" fill="#004AAD"/>
<path d="M4.79167 0C3.52084 0 2.30206 0.444474 1.40345 1.23564C0.504835 2.02681 0 3.09987 0 4.21875V23.625C0 24.5201 0.403868 25.3785 1.12276 26.0115C1.84165 26.6444 2.81667 27 3.83333 27H19.1667C20.1833 27 21.1584 26.6444 21.8772 26.0115C22.5961 25.3785 23 24.5201 23 23.625V4.21875C23 3.09987 22.4952 2.02681 21.5966 1.23564C20.6979 0.444474 19.4792 0 18.2083 0L4.79167 0ZM1.91667 4.21875C1.91667 3.54742 2.21957 2.90359 2.75873 2.42889C3.2979 1.95418 4.02917 1.6875 4.79167 1.6875H18.2083C18.9708 1.6875 19.7021 1.95418 20.2413 2.42889C20.7804 2.90359 21.0833 3.54742 21.0833 4.21875V22.4353C20.6235 22.1115 20.1248 21.8331 19.596 21.6051C18.0013 20.9031 15.4541 20.25 11.5 20.25C7.54592 20.25 4.99867 20.9031 3.404 21.6051C2.87523 21.8331 2.37647 22.1115 1.91667 22.4353V4.21875Z" fill="#004AAD"/>
</svg>
