<svg width="72" height="62" viewBox="0 0 72 62" fill="none" xmlns="http://www.w3.org/2000/svg">
<path d="M11.9744 29.7387L41.2906 4.44134C44.6897 1.57567 49.2642 -0.0201588 54.0212 0.000192285C58.7783 0.0205434 63.3341 1.65543 66.6999 4.55005C70.0658 7.44466 71.9701 11.3654 71.9996 15.4615C72.0292 19.5576 70.1815 23.4984 66.8576 26.4288L60.1858 32.3758L37.573 51.8468L30.6934 57.5721C27.2902 60.4342 22.7134 62.0251 17.9564 61.9997C13.1994 61.9743 8.64596 60.3345 5.28426 57.4363C1.92255 54.5381 0.0238583 50.6153 0.000223312 46.5192C-0.0234117 42.4231 1.82992 38.4843 5.15801 35.5575L5.16253 35.5497L11.9608 29.7465L11.9653 29.7387H11.9744ZM37.7672 18.6225C37.5575 18.4417 37.3085 18.2982 37.0344 18.2003C36.7604 18.1023 36.4665 18.0518 36.1698 18.0516C35.873 18.0514 35.5791 18.1016 35.3049 18.1992C35.0306 18.2968 34.7814 18.44 34.5714 18.6206C34.3614 18.8011 34.1947 19.0155 34.081 19.2515C33.9672 19.4876 33.9086 19.7406 33.9083 19.9961C33.9081 20.2516 33.9664 20.5047 34.0798 20.7408C34.1931 20.977 34.3594 21.1916 34.5691 21.3724C34.9951 21.7267 35.5656 21.9227 36.1578 21.9182C36.75 21.9138 37.3165 21.7093 37.7352 21.3487C38.154 20.9881 38.3915 20.5004 38.3966 19.9905C38.4018 19.4805 38.1741 18.9893 37.7627 18.6225H37.7672ZM31.371 26.8722C31.5867 26.6928 31.7588 26.4782 31.8771 26.2409C31.9955 26.0036 32.0578 25.7485 32.0604 25.4902C32.063 25.232 32.0059 24.9759 31.8923 24.7369C31.7787 24.4979 31.611 24.2808 31.399 24.0982C31.1869 23.9156 30.9347 23.7712 30.6572 23.6734C30.3796 23.5756 30.0822 23.5264 29.7823 23.5287C29.4824 23.5309 29.186 23.5845 28.9105 23.6865C28.6349 23.7884 28.3857 23.9365 28.1774 24.1223C27.7659 24.4891 27.5383 24.9803 27.5434 25.4902C27.5486 26.0001 27.7861 26.4879 28.2049 26.8485C28.6236 27.2091 29.1901 27.4136 29.7823 27.418C30.3745 27.4224 30.945 27.2264 31.371 26.8722ZM24.9837 32.3758C25.4078 32.0112 25.6463 31.5164 25.6468 31.0003C25.6472 30.4843 25.4095 29.9892 24.986 29.624C24.5625 29.2588 23.9879 29.0535 23.3885 29.0531C22.7892 29.0527 22.2142 29.2574 21.7901 29.6221C21.5801 29.8026 21.4135 30.017 21.2997 30.253C21.186 30.489 21.1273 30.742 21.1271 30.9976C21.1267 31.5136 21.3644 32.0087 21.7879 32.3739C22.2114 32.7391 22.786 32.9444 23.3853 32.9448C23.9847 32.9452 24.5596 32.7405 24.9837 32.3758ZM37.7582 43.3754C37.9739 43.196 38.146 42.9814 38.2644 42.7441C38.3827 42.5069 38.445 42.2517 38.4476 41.9934C38.4502 41.7352 38.3931 41.4791 38.2795 41.2401C38.166 41.0011 37.9983 40.784 37.7862 40.6014C37.5741 40.4188 37.322 40.2744 37.0444 40.1766C36.7668 40.0788 36.4694 40.0296 36.1695 40.0319C35.8696 40.0341 35.5733 40.0878 35.2977 40.1897C35.0222 40.2916 34.7729 40.4398 34.5646 40.6255C34.1532 40.9923 33.9255 41.4835 33.9307 41.9934C33.9358 42.5034 34.1733 42.9911 34.5921 43.3517C35.0109 43.7123 35.5773 43.9168 36.1695 43.9212C36.7617 43.9257 37.3322 43.7296 37.7582 43.3754ZM44.1454 35.1257C43.9371 34.94 43.6879 34.7918 43.4123 34.6899C43.1368 34.588 42.8404 34.5343 42.5405 34.5321C42.2406 34.5298 41.9432 34.579 41.6656 34.6768C41.3881 34.7746 41.1359 34.919 40.9238 35.1016C40.7118 35.2842 40.5441 35.5014 40.4305 35.7404C40.3169 35.9794 40.2598 36.2354 40.2624 36.4937C40.265 36.7519 40.3273 37.0071 40.4457 37.2444C40.564 37.4816 40.7361 37.6962 40.9518 37.8756C41.3778 38.2299 41.9483 38.4259 42.5405 38.4215C43.1327 38.417 43.6992 38.2125 44.1179 37.8519C44.5367 37.4914 44.7742 37.0036 44.7794 36.4937C44.7845 35.9838 44.5569 35.4925 44.1454 35.1257ZM50.5327 32.3758C50.7487 32.1967 50.9211 31.9823 51.0398 31.7452C51.1586 31.5081 51.2213 31.253 51.2243 30.9948C51.2273 30.7365 51.1706 30.4804 51.0574 30.2413C50.9442 30.0021 50.7769 29.7848 50.5651 29.602C50.3534 29.4191 50.1015 29.2744 49.8241 29.1763C49.5467 29.0782 49.2493 29.0286 48.9495 29.0305C48.6496 29.0323 48.3531 29.0856 48.0774 29.1872C47.8017 29.2888 47.5522 29.4366 47.3436 29.6221C46.9195 29.9867 46.681 30.4815 46.6806 30.9976C46.6801 31.5136 46.9178 32.0087 47.3413 32.3739C47.7648 32.7391 48.3394 32.9444 48.9388 32.9448C49.5381 32.9452 50.1131 32.7405 50.5372 32.3758H50.5327ZM31.371 35.1257C31.1626 34.94 30.9134 34.7918 30.6378 34.6899C30.3623 34.588 30.0659 34.5343 29.766 34.5321C29.4661 34.5298 29.1687 34.579 28.8912 34.6768C28.6136 34.7746 28.3614 34.919 28.1494 35.1016C27.9373 35.2842 27.7696 35.5014 27.656 35.7404C27.5425 35.9794 27.4853 36.2354 27.4879 36.4937C27.4905 36.7519 27.5528 37.0071 27.6712 37.2444C27.7896 37.4816 27.9616 37.6962 28.1774 37.8756C28.6033 38.2299 29.1738 38.4259 29.766 38.4215C30.3582 38.417 30.9247 38.2125 31.3435 37.8519C31.7622 37.4914 31.9997 37.0036 32.0049 36.4937C32.01 35.9838 31.7824 35.4925 31.371 35.1257ZM37.7582 32.3758C37.9682 32.1953 38.1348 31.9809 38.2486 31.7449C38.3624 31.5089 38.421 31.2559 38.4212 31.0003C38.4214 30.7448 38.3632 30.4917 38.2498 30.2556C38.1364 30.0194 37.9702 29.8048 37.7605 29.624C37.5508 29.4432 37.3018 29.2997 37.0277 29.2018C36.7536 29.1038 36.4598 29.0533 36.163 29.0531C35.8662 29.0529 35.5723 29.1031 35.2981 29.2007C35.0238 29.2983 34.7746 29.4415 34.5646 29.6221C34.1405 29.9867 33.902 30.4815 33.9016 30.9976C33.9011 31.5136 34.1388 32.0087 34.5623 32.3739C34.9858 32.7391 35.5605 32.9444 36.1598 32.9448C36.7591 32.9452 37.3341 32.7405 37.7582 32.3758ZM44.1454 24.1223C43.9371 23.9365 43.6879 23.7884 43.4123 23.6865C43.1368 23.5845 42.8404 23.5309 42.5405 23.5287C42.2406 23.5264 41.9432 23.5756 41.6656 23.6734C41.3881 23.7712 41.1359 23.9156 40.9238 24.0982C40.7118 24.2808 40.5441 24.4979 40.4305 24.7369C40.3169 24.9759 40.2598 25.232 40.2624 25.4902C40.265 25.7485 40.3273 26.0036 40.4457 26.2409C40.564 26.4782 40.7361 26.6928 40.9518 26.8722C41.3778 27.2264 41.9483 27.4224 42.5405 27.418C43.1327 27.4136 43.6992 27.2091 44.1179 26.8485C44.5367 26.4879 44.7742 26.0001 44.7794 25.4902C44.7845 24.9803 44.5569 24.4891 44.1454 24.1223ZM38.9236 12.9283L56.9922 28.4863L60.1903 25.7325L42.1218 10.1745L38.9236 12.9283ZM33.0875 49.0696L15.0189 33.5116L11.8208 36.2654L29.8893 51.8234L33.0875 49.0696Z" fill="#F8F8F8"/>
</svg>
