<svg width="72" height="62" viewBox="0 0 72 62" fill="none" xmlns="http://www.w3.org/2000/svg">
<path d="M20.7883 1.49779C20.703 1.23731 20.551 0.993022 20.3414 0.779648C20.1319 0.566274 19.8691 0.38824 19.5689 0.256283C19.2688 0.124327 18.9375 0.0411844 18.595 0.0118696C18.2526 -0.0174451 17.9061 0.00767609 17.5764 0.0857176C17.2468 0.163759 16.9408 0.293103 16.6769 0.465949C16.413 0.638795 16.1968 0.85156 16.0411 1.09141C15.8855 1.33126 15.7938 1.59323 15.7714 1.8615C15.7491 2.12978 15.7966 2.39881 15.9111 2.65237L18.0028 8.0351C13.3202 11.7574 10.6968 16.7654 10.6971 21.9816H61.7143C61.7146 16.7654 59.0913 11.7574 54.4086 8.0351L56.5003 2.65237C56.6148 2.39881 56.6624 2.12978 56.64 1.8615C56.6177 1.59323 56.5259 1.33126 56.3703 1.09141C56.2147 0.85156 55.9984 0.638795 55.7345 0.465949C55.4707 0.293103 55.1647 0.163759 54.835 0.0857176C54.5053 0.00767609 54.1588 -0.0174451 53.8164 0.0118696C53.4739 0.0411844 53.1427 0.124327 52.8425 0.256283C52.5424 0.38824 52.2796 0.566274 52.07 0.779648C51.8604 0.993022 51.7084 1.23731 51.6231 1.49779L50.1385 5.30392C45.9937 3.19604 41.1529 2.07422 36.2057 2.07508C31.2585 2.07422 26.4177 3.19604 22.2729 5.30392L20.7883 1.49779Z" fill="#F8F8F8"/>
<path d="M61.7143 22.8452V26.7705H38.5714V62C44.9142 61.5135 50.7941 59.246 55.0703 55.6377C59.3466 52.0293 61.7144 47.3372 61.7143 42.4717H64.2857C64.9677 42.4717 65.6217 42.6785 66.104 43.0465C66.5862 43.4146 66.8571 43.9138 66.8571 44.4343V46.397C66.8571 46.9175 67.1281 47.4167 67.6103 47.7848C68.0925 48.1528 68.7466 48.3596 69.4286 48.3596C70.1106 48.3596 70.7646 48.1528 71.2468 47.7848C71.7291 47.4167 72 46.9175 72 46.397V44.4343C72 42.8727 71.1872 41.3751 69.7405 40.2709C68.2938 39.1667 66.3317 38.5464 64.2857 38.5464H61.7143V34.6211H69.4286C70.1106 34.6211 70.7646 34.4143 71.2468 34.0462C71.7291 33.6782 72 33.179 72 32.6584C72 32.1379 71.7291 31.6387 71.2468 31.2706C70.7646 30.9026 70.1106 30.6958 69.4286 30.6958H61.7143V26.7705H64.2857C66.3317 26.7705 68.2938 26.1502 69.7405 25.046C71.1872 23.9418 72 22.4441 72 20.8826V18.9199C72 18.3994 71.7291 17.9002 71.2468 17.5321C70.7646 17.1641 70.1106 16.9573 69.4286 16.9573C68.7466 16.9573 68.0925 17.1641 67.6103 17.5321C67.1281 17.9002 66.8571 18.3994 66.8571 18.9199V20.8826C66.8571 21.4031 66.5862 21.9023 66.104 22.2704C65.6217 22.6384 64.9677 22.8452 64.2857 22.8452H61.7143ZM33.4286 62V26.7705H10.2857V22.8452H7.71429C7.0323 22.8452 6.37825 22.6384 5.89601 22.2704C5.41377 21.9023 5.14286 21.4031 5.14286 20.8826V18.9199C5.14286 18.3994 4.87194 17.9002 4.3897 17.5321C3.90747 17.1641 3.25341 16.9573 2.57143 16.9573C1.88944 16.9573 1.23539 17.1641 0.753154 17.5321C0.270918 17.9002 0 18.3994 0 18.9199V20.8826C0 22.4441 0.812753 23.9418 2.25946 25.046C3.70617 26.1502 5.66833 26.7705 7.71429 26.7705H10.2857V30.6958H2.57143C1.88944 30.6958 1.23539 30.9026 0.753154 31.2706C0.270918 31.6387 0 32.1379 0 32.6584C0 33.179 0.270918 33.6782 0.753154 34.0462C1.23539 34.4143 1.88944 34.6211 2.57143 34.6211H10.2857V38.5464H7.71429C5.66833 38.5464 3.70617 39.1667 2.25946 40.2709C0.812753 41.3751 0 42.8727 0 44.4343V46.397C0 46.9175 0.270918 47.4167 0.753154 47.7848C1.23539 48.1528 1.88944 48.3596 2.57143 48.3596C3.25341 48.3596 3.90747 48.1528 4.3897 47.7848C4.87194 47.4167 5.14286 46.9175 5.14286 46.397V44.4343C5.14286 43.9138 5.41377 43.4146 5.89601 43.0465C6.37825 42.6785 7.0323 42.4717 7.71429 42.4717H10.2857C10.2856 47.3372 12.6534 52.0293 16.9297 55.6377C21.2059 59.246 27.0858 61.5135 33.4286 62Z" fill="#F8F8F8"/>
</svg>
